Coordinates
version=1
nRows=17
nColumns=24
inDegrees=yes

Units are S.I. units (second, meters, Newtons, ...)
Angles are in degrees.

endheader
time	pelvis_tilt	pelvis_list	pelvis_rotation	pelvis_tx	pelvis_ty	pelvis_tz	hip_flexion_r	hip_adduction_r	hip_rotation_r	knee_angle_r	ankle_angle_r	subtalar_angle_r	mtp_angle_r	hip_flexion_l	hip_adduction_l	hip_rotation_l	knee_angle_l	ankle_angle_l	subtalar_angle_l	mtp_angle_l	lumbar_extension	lumbar_bending	lumbar_rotation
      3.56500000	     12.56916788	      3.17597991	     15.13453386	     -0.93626664	      0.91373476	     -0.25003405	      7.00869667	     -5.36057541	     -8.75375480	     -0.90706548	     14.39121379	     -2.66223228	      0.00000000	    -30.93924911	     -2.30308517	     16.02795480	    -14.09362986	     20.18481526	      8.33978839	      0.00000000	    -26.90751832	      4.95931299	    -20.26217464
      3.57000000	     12.66010557	      2.55365863	     15.26113709	     -0.92810654	      0.91330242	     -0.24950601	      7.07357661	     -4.62396201	     -8.66605900	     -1.49234772	     14.29690557	     -2.88217829	      0.00000000	    -30.95789684	     -3.08579990	     15.49442865	    -14.96254701	     19.89549284	      8.98782088	      0.00000000	    -26.64432900	      5.60428249	    -20.19711590
      3.57500000	     12.98085834	      1.91925863	     15.24333069	     -0.91997049	      0.91308180	     -0.24872837	      6.93264254	     -3.77885084	     -8.40278095	     -2.15018468	     14.22015406	     -3.17656296	      0.00000000	    -31.22320270	     -3.88186700	     14.71307115	    -15.82477976	     19.53166920	      9.71619505	      0.00000000	    -26.68026762	      6.26321106	    -19.96986184
      3.58000000	     13.10205423	      1.23650827	     15.34440374	     -0.91176303	      0.91277139	     -0.24814465	      6.99329436	     -2.95510383	     -8.33619426	     -2.88323586	     14.14664937	     -3.29417764	      0.00000000	    -31.21169834	     -4.70760984	     14.13232443	    -16.78626376	     19.10832206	     10.31463500	      0.00000000	    -26.46408387	      6.97465317	    -19.83322264
      3.58500000	     13.40872856	      0.53273310	     15.31351585	     -0.90358023	      0.91262236	     -0.24727458	      6.88800595	     -2.02006516	     -8.07990138	     -3.66224638	     14.04346724	     -3.57189107	      0.00000000	    -31.39001781	     -5.55492164	     13.29586778	    -17.76401801	     18.65383451	     11.09281858	      0.00000000	    -26.49746575	      7.69696873	    -19.59314627
      3.59000000	     13.59200138	     -0.20206229	     15.35550852	     -0.89530874	      0.91242609	     -0.24650963	      6.89709404	     -1.09208231	     -7.96978118	     -4.47722168	     13.96943399	     -3.73002156	      0.00000000	    -31.38535887	     -6.42360158	     12.56711498	    -18.82397936	     18.12926133	     11.76297330	      0.00000000	    -26.37206943	      8.44787799	    -19.39356442
      3.59500000	     13.80207915	     -0.95233140	     15.36066008	     -0.88702671	      0.91228712	     -0.24566121	      6.88553839	     -0.12610248	     -7.78300353	     -5.33384363	     13.87583944	     -3.92411056	      0.00000000	    -31.38870278	     -7.29804476	     11.79660189	    -19.91511619	     17.53953508	     12.45314220	      0.00000000	    -26.29215192	      9.20797412	    -19.16481568
      3.60000000	     13.93280132	     -1.71817825	     15.41073809	     -0.87867660	      0.91212628	     -0.24488651	      6.94346268	      0.83104913	     -7.69404134	     -6.21301031	     13.82865986	     -4.02240703	      0.00000000	    -31.26383527	     -8.18062251	     11.11465415	    -21.06979957	     16.88214726	     13.03575884	      0.00000000	    -26.10907784	      9.98226759	    -18.95145090
      3.60500000	     14.11760125	     -2.46840300	     15.39641856	     -0.87042161	      0.91203857	     -0.24390856	      6.94108802	      1.81459940	     -7.50268555	     -7.08823724	     13.71883540	     -4.24186161	      0.00000000	    -31.15729428	     -9.04541977	     10.30814314	    -22.30106235	     16.20821960	     13.71977996	      0.00000000	    -26.03622396	     10.71566216	    -18.71597853
      3.61000000	     14.24305427	     -3.22448237	     15.41187988	     -0.86209031	      0.91195228	     -0.24301543	      6.97711727	      2.78395579	     -7.38718014	     -7.95994952	     13.65280689	     -4.34941948	      0.00000000	    -30.95510952	     -9.90668818	      9.60049634	    -23.57128858	     15.44377388	     14.27124393	      0.00000000	    -25.87841664	     11.46341255	    -18.51835347
      3.61500000	     14.37241888	     -3.96121825	     15.40655879	     -0.85382780	      0.91191064	     -0.24203063	      6.99490474	      3.74964137	     -7.22026351	     -8.82142738	     13.55166422	     -4.52803376	      0.00000000	    -30.71570910	    -10.74846127	      8.88117376	    -24.90456505	     14.65297040	     14.84637420	      0.00000000	    -25.75747584	     12.17411453	    -18.31716399
      3.62000000	     14.46602707	     -4.68856647	     15.42181578	     -0.84554140	      0.91188117	     -0.24107520	      7.02144402	      4.69676891	     -7.10901554	     -9.65438308	     13.49283231	     -4.63911000	      0.00000000	    -30.39674577	    -11.58101400	      8.22995227	    -26.28736393	     13.80324744	     15.30614837	      0.00000000	    -25.59134766	     12.87923106	    -18.14008100
      3.62500000	     14.54412844	     -5.38697757	     15.42471257	     -0.83733291	      0.91188847	     -0.24005680	      7.04152409	      5.62234628	     -6.94721573	    -10.45949338	     13.39802929	     -4.81921064	      0.00000000	    -30.01596398	    -12.38364705	      7.60674372	    -27.72815526	     12.93128060	     15.76991728	      0.00000000	    -25.43579130	     13.53945186	    -17.97590460
      3.63000000	     14.59598595	     -6.06525850	     15.44871105	     -0.82914322	      0.91190935	     -0.23907786	      7.05743822	      6.51904467	     -6.84597648	    -11.22271020	     13.35606791	     -4.94220302	      0.00000000	    -29.55893193	    -13.16898131	      7.05033901	    -29.22054962	     12.04047825	     16.10215893	      0.00000000	    -25.25265694	     14.18196146	    -17.84179460
      3.63500000	     14.63806832	     -6.71858942	     15.48855087	     -0.82097770	      0.91196232	     -0.23813217	      7.04900429	      7.38889687	     -6.77602316	    -11.93501502	     13.35525355	     -5.04781321	      0.00000000	    -29.04800886	    -13.93302590	      6.55840276	    -30.75144850	     11.13506551	     16.30377856	      0.00000000	    -25.06147214	     14.80311886	    -17.73337736
      3.64000000	     14.66674584	     -7.34005479	     15.54099141	     -0.81287322	      0.91206425	     -0.23720302	      7.01871112	      8.22626472	     -6.68452627	    -12.58993556	     13.34558431	     -5.15854700	      0.00000000	    -28.47548412	    -14.66781343	      6.15118044	    -32.31705911	     10.21516332	     16.44533930	      0.00000000	    -24.86477371	     15.39675952	    -17.64816694
      3.64500000	     14.61702692	     -7.91919427	     15.60137093	     -0.80491837	      0.91212522	     -0.23617841	      7.05271395	      9.00862056	     -6.60411801	    -13.21118117	     13.32951206	     -5.36498190	      0.00000000	    -27.74278159	    -15.36751209	      5.79095976	    -33.96265358	      9.36601219	     16.61194790	      0.00000000	    -24.61246500	     15.91485411	    -17.63721231
